<svg xmlns="http://www.w3.org/2000/svg" viewBox="0 0 760 520" role="img" aria-labelledby="title desc">
  <title id="title">L=4 toric code lattice diagram</title>
  <desc id="desc">A 4 by 4 lattice of vertices and edges for the toric code. One plaquette stabilizer is highlighted in violet, one vertex stabilizer in teal, and opposite boundaries are identified to show periodic boundary conditions.</desc>

  <defs>
    <marker id="arrow" markerWidth="8" markerHeight="8" refX="7" refY="4" orient="auto" markerUnits="strokeWidth">
      <path d="M0,0 L8,4 L0,8 Z" fill="#4b5563" />
    </marker>
  </defs>

  <!-- Highlighted X-type plaquette face -->
  <rect x="120" y="80" width="140" height="110" fill="#7c3aed" opacity="0.14" stroke="#6d28d9" stroke-width="2.2" />

  <!-- Lattice edges -->
  <g stroke="#9ca3af" stroke-width="3" stroke-linecap="round">
    <!-- Horizontal edges -->
    <line x1="120" y1="80" x2="260" y2="80" />
    <line x1="260" y1="80" x2="400" y2="80" />
    <line x1="400" y1="80" x2="540" y2="80" />
    <line x1="120" y1="190" x2="260" y2="190" />
    <line x1="260" y1="190" x2="400" y2="190" />
    <line x1="400" y1="190" x2="540" y2="190" />
    <line x1="120" y1="300" x2="260" y2="300" />
    <line x1="260" y1="300" x2="400" y2="300" />
    <line x1="400" y1="300" x2="540" y2="300" />
    <line x1="120" y1="410" x2="260" y2="410" />
    <line x1="260" y1="410" x2="400" y2="410" />
    <line x1="400" y1="410" x2="540" y2="410" />

    <!-- Vertical edges -->
    <line x1="120" y1="80" x2="120" y2="190" />
    <line x1="120" y1="190" x2="120" y2="300" />
    <line x1="120" y1="300" x2="120" y2="410" />
    <line x1="260" y1="80" x2="260" y2="190" />
    <line x1="260" y1="190" x2="260" y2="300" />
    <line x1="260" y1="300" x2="260" y2="410" />
    <line x1="400" y1="80" x2="400" y2="190" />
    <line x1="400" y1="190" x2="400" y2="300" />
    <line x1="400" y1="300" x2="400" y2="410" />
    <line x1="540" y1="80" x2="540" y2="190" />
    <line x1="540" y1="190" x2="540" y2="300" />
    <line x1="540" y1="300" x2="540" y2="410" />
  </g>

  <!-- Periodic wraparound edge stubs ("spilling out" on all sides) -->
  <g stroke="#9ca3af" stroke-width="3" stroke-linecap="round">
    <!-- Left side: horizontal edges continue outward -->
    <line x1="120" y1="80" x2="82" y2="80" />
    <line x1="120" y1="190" x2="82" y2="190" />
    <line x1="120" y1="300" x2="82" y2="300" />
    <line x1="120" y1="410" x2="82" y2="410" />

    <!-- Right side: horizontal edges continue outward -->
    <line x1="540" y1="80" x2="578" y2="80" />
    <line x1="540" y1="190" x2="578" y2="190" />
    <line x1="540" y1="300" x2="578" y2="300" />
    <line x1="540" y1="410" x2="578" y2="410" />

    <!-- Top side: vertical edges continue outward -->
    <line x1="120" y1="80" x2="120" y2="46" />
    <line x1="260" y1="80" x2="260" y2="46" />
    <line x1="400" y1="80" x2="400" y2="46" />
    <line x1="540" y1="80" x2="540" y2="46" />

    <!-- Bottom side: vertical edges continue outward -->
    <line x1="120" y1="410" x2="120" y2="444" />
    <line x1="260" y1="410" x2="260" y2="444" />
    <line x1="400" y1="410" x2="400" y2="444" />
    <line x1="540" y1="410" x2="540" y2="444" />
  </g>

  <!-- Highlighted X stabilizer acts on boundary edges (violet) -->
  <g stroke="#7c3aed" stroke-width="6" stroke-linecap="round">
    <line x1="120" y1="80" x2="260" y2="80" />
    <line x1="260" y1="80" x2="260" y2="190" />
    <line x1="120" y1="190" x2="260" y2="190" />
    <line x1="120" y1="80" x2="120" y2="190" />
  </g>

  <!-- Highlighted Z stabilizer acts on incident edges (teal) -->
  <g stroke="#0f766e" stroke-width="6" stroke-linecap="round">
    <line x1="260" y1="300" x2="400" y2="300" />
    <line x1="400" y1="300" x2="540" y2="300" />
    <line x1="400" y1="190" x2="400" y2="300" />
    <line x1="400" y1="300" x2="400" y2="410" />
  </g>

  <!-- Vertices -->
  <g fill="#111827">
    <circle cx="120" cy="80" r="5.2" />
    <circle cx="260" cy="80" r="5.2" />
    <circle cx="400" cy="80" r="5.2" />
    <circle cx="540" cy="80" r="5.2" />
    <circle cx="120" cy="190" r="5.2" />
    <circle cx="260" cy="190" r="5.2" />
    <circle cx="400" cy="190" r="5.2" />
    <circle cx="540" cy="190" r="5.2" />
    <circle cx="120" cy="300" r="5.2" />
    <circle cx="260" cy="300" r="5.2" />
    <circle cx="400" cy="300" r="6.8" fill="#0f766e" />
    <circle cx="540" cy="300" r="5.2" />
    <circle cx="120" cy="410" r="5.2" />
    <circle cx="260" cy="410" r="5.2" />
    <circle cx="400" cy="410" r="5.2" />
    <circle cx="540" cy="410" r="5.2" />
  </g>

  <!-- Labels and arrows -->
  <g font-family="Georgia, 'Times New Roman', serif" font-size="20" fill="#374151">
    <text x="34" y="52">X stabilizer</text>
    <line x1="146" y1="58" x2="182" y2="108" stroke="#4b5563" stroke-width="2.2" marker-end="url(#arrow)" />

    <text x="585" y="318">Z stabilizer</text>
    <line x1="573" y1="306" x2="417" y2="300" stroke="#4b5563" stroke-width="2.2" marker-end="url(#arrow)" />

    <text x="586" y="166">qubit (edge)</text>
    <line x1="575" y1="170" x2="477" y2="190" stroke="#4b5563" stroke-width="2.2" marker-end="url(#arrow)" />
  </g>
</svg>
